<svg width="136" height="56" viewBox="0 0 136 56" fill="none" xmlns="http://www.w3.org/2000/svg">
<g filter="url(#filter0_d_27_64)">
<rect x="4" width="128" height="48" rx="24" fill="#FFE891"/>
</g>
<path d="M33.9376 31.64C33.7296 31.368 33.5536 31.072 33.4096 30.752C33.2656 30.416 33.1136 30.016 32.9536 29.552C32.9216 29.472 32.8256 29.232 32.6656 28.832C32.5216 28.432 32.3536 28.088 32.1616 27.8C31.1536 27.944 30.3296 28.016 29.6896 28.016C29.3376 28.016 28.9456 28.008 28.5136 27.992C28.0976 27.96 27.7856 27.944 27.5776 27.944C26.7776 27.88 26.1376 27.848 25.6576 27.848C25.4656 28.104 25.2976 28.376 25.1536 28.664C25.0256 28.952 24.8576 29.384 24.6496 29.96C24.3616 30.792 24.1136 31.384 23.9056 31.736C23.7616 31.976 23.4816 32.096 23.0656 32.096C22.7136 32.096 22.3856 32.024 22.0816 31.88C21.7936 31.72 21.6496 31.504 21.6496 31.232C21.7776 30.624 21.9776 29.984 22.2496 29.312C22.5376 28.624 22.9456 27.712 23.4736 26.576L24.4336 24.224C24.9616 22.88 25.4416 21.728 25.8736 20.768C26.3216 19.808 26.9056 18.672 27.6256 17.36C27.7216 17.168 27.8816 17.008 28.1056 16.88C28.3296 16.736 28.5776 16.664 28.8496 16.664C29.1536 16.664 29.3696 16.688 29.4976 16.736C29.6416 16.768 29.7536 16.832 29.8336 16.928C29.9136 17.008 30.0336 17.184 30.1936 17.456C30.7376 18.304 31.2016 19.176 31.5856 20.072C31.9856 20.968 32.4896 22.208 33.0976 23.792L33.6016 25.064C34.0496 26.216 34.4336 27.184 34.7536 27.968C35.0896 28.736 35.4576 29.44 35.8576 30.08C36.1136 30.496 36.2416 30.784 36.2416 30.944C36.2416 31.328 36.1216 31.624 35.8816 31.832C35.6576 32.024 35.3616 32.12 34.9936 32.12C34.5296 32.12 34.1776 31.96 33.9376 31.64ZM31.4656 25.832C31.2096 25.288 30.8416 24.344 30.3616 23C29.8656 21.56 29.3696 20.416 28.8736 19.568C28.5696 20.336 28.1216 21.328 27.5296 22.544C27.1296 23.296 26.6736 24.384 26.1616 25.808C27.1856 25.936 28.2896 26 29.4736 26C30.3216 26 30.9856 25.944 31.4656 25.832ZM48.3772 18.512C48.3772 18.048 48.4812 17.648 48.6892 17.312C48.9132 16.96 49.2412 16.784 49.6732 16.784C50.0412 16.784 50.3692 16.856 50.6572 17C50.9452 17.144 51.0892 17.384 51.0892 17.72C51.0892 18.376 51.0572 19.296 50.9932 20.48C50.9292 21.632 50.8972 22.488 50.8972 23.048C50.8972 23.928 50.9292 25.104 50.9932 26.576C51.0572 27.984 51.0892 29.016 51.0892 29.672C51.0892 30.2 51.0812 30.592 51.0652 30.848C51.0652 31.104 50.9212 31.36 50.6332 31.616C50.3612 31.856 49.9372 31.976 49.3612 31.976C49.0572 31.976 48.7932 31.928 48.5692 31.832C48.3612 31.72 48.2172 31.6 48.1372 31.472C47.3852 30.56 46.2892 29.008 44.8492 26.816C43.2332 24.368 41.9132 22.496 40.8892 21.2C41.0172 22.352 41.0812 23.76 41.0812 25.424C41.0812 26.16 41.0652 27.12 41.0332 28.304C41.0172 29.472 40.9852 30.24 40.9372 30.608C40.8732 31.072 40.7292 31.432 40.5052 31.688C40.2972 31.928 39.9612 32.048 39.4972 32.048C39.1452 32.048 38.8812 31.952 38.7052 31.76C38.5452 31.552 38.4492 31.2 38.4172 30.704C38.4012 30.048 38.4412 29.064 38.5372 27.752C38.5532 27.544 38.5772 27.184 38.6092 26.672C38.6412 26.16 38.6572 25.704 38.6572 25.304C38.6572 24.2 38.6012 22.936 38.4892 21.512C38.3932 19.944 38.3452 18.784 38.3452 18.032C38.3452 17.648 38.4812 17.352 38.7532 17.144C39.0412 16.936 39.3692 16.832 39.7372 16.832C40.0572 16.832 40.3932 16.912 40.7452 17.072C42.1212 18.8 43.9852 21.376 46.3372 24.8L48.5932 28.256C48.6092 28 48.6172 27.64 48.6172 27.176C48.6172 26.36 48.6012 25.48 48.5692 24.536C48.5372 23.592 48.5132 22.952 48.4972 22.616C48.4172 21.064 48.3772 19.696 48.3772 18.512ZM65.3165 27.872C65.3165 28.624 65.1565 29.232 64.8365 29.696C64.5165 30.16 63.9645 30.616 63.1805 31.064C62.6525 31.384 62.0445 31.632 61.3565 31.808C60.6685 31.968 59.9725 32.048 59.2685 32.048C58.8365 32.048 58.3325 31.968 57.7565 31.808C57.1965 31.632 56.7405 31.464 56.3885 31.304L55.9805 30.944C55.2605 30.352 54.7565 29.88 54.4685 29.528C54.1965 29.16 54.0605 28.712 54.0605 28.184C54.0605 27.768 54.1565 27.456 54.3485 27.248C54.5405 27.04 54.8525 26.936 55.2845 26.936C55.5085 26.936 55.7165 27.008 55.9085 27.152C56.1005 27.296 56.2685 27.496 56.4125 27.752C56.8125 28.456 57.2845 28.976 57.8285 29.312C58.3885 29.632 59.0445 29.792 59.7965 29.792C60.5005 29.792 61.2125 29.576 61.9325 29.144C62.5245 28.776 62.8205 28.416 62.8205 28.064C62.8205 27.44 62.5405 26.92 61.9805 26.504C61.4365 26.088 60.6525 25.712 59.6285 25.376C59.0045 25.152 58.0685 24.736 56.8205 24.128C55.9725 23.712 55.3405 23.2 54.9245 22.592C54.5085 21.984 54.3005 21.344 54.3005 20.672C54.3005 20.064 54.5085 19.472 54.9245 18.896C55.3565 18.304 55.8765 17.864 56.4845 17.576C56.8045 17.416 57.3165 17.248 58.0205 17.072C58.7245 16.88 59.2525 16.784 59.6045 16.784C60.2605 16.784 60.8285 16.864 61.3085 17.024C61.7885 17.168 62.2605 17.376 62.7245 17.648C63.4285 18.048 63.9485 18.408 64.2845 18.728C64.6205 19.048 64.7885 19.448 64.7885 19.928C64.7885 20.216 64.6765 20.472 64.4525 20.696C64.2445 20.92 63.8765 21.032 63.3485 21.032C63.2205 21.032 63.0925 20.976 62.9645 20.864C62.8365 20.752 62.6765 20.584 62.4845 20.36C62.2285 20.024 61.9805 19.8 61.7405 19.688C61.6765 19.672 61.4125 19.568 60.9485 19.376C60.5005 19.184 59.9405 19.088 59.2685 19.088C58.6285 19.088 58.0605 19.24 57.5645 19.544C57.0685 19.832 56.8205 20.256 56.8205 20.816C56.8205 21.376 57.3245 21.832 58.3325 22.184C59.4045 22.6 60.2925 22.96 60.9965 23.264C61.7165 23.568 62.4125 23.928 63.0845 24.344C63.8525 24.808 64.4125 25.296 64.7645 25.808C65.1325 26.32 65.3165 27.008 65.3165 27.872ZM83.6651 18.128C83.7611 17.792 83.9051 17.52 84.0971 17.312C84.2891 17.088 84.4971 16.976 84.7211 16.976C85.2651 16.976 85.6571 17.08 85.8971 17.288C86.1371 17.496 86.2571 17.856 86.2571 18.368C86.2571 18.512 86.1451 18.92 85.9211 19.592C85.4251 21.112 84.8811 22.992 84.2891 25.232C84.1451 25.744 84.0251 26.192 83.9291 26.576C83.8491 26.96 83.7771 27.28 83.7131 27.536C83.3291 29.184 82.9931 30.424 82.7051 31.256C82.6091 31.496 82.4411 31.688 82.2011 31.832C81.9611 31.96 81.7051 32.024 81.4331 32.024C81.1611 32.024 80.8891 31.968 80.6171 31.856C80.3611 31.728 80.1771 31.584 80.0651 31.424C79.6811 30.672 79.1051 29.312 78.3371 27.344C77.5851 25.376 76.9931 23.704 76.5611 22.328C75.8091 24.264 75.0251 26.536 74.2091 29.144C73.8891 30.184 73.6651 30.888 73.5371 31.256C73.4251 31.496 73.2651 31.688 73.0571 31.832C72.8491 31.96 72.6171 32.024 72.3611 32.024C72.0731 32.024 71.7931 31.968 71.5211 31.856C71.2491 31.728 71.0651 31.584 70.9691 31.424C70.7611 31.072 70.5371 30.528 70.2971 29.792C70.0731 29.056 69.7691 28.024 69.3851 26.696L68.7851 24.656C68.3691 23.328 68.0091 21.968 67.7051 20.576C67.4011 19.184 67.2491 18.352 67.2491 18.08C67.2491 17.744 67.4171 17.48 67.7531 17.288C68.0891 17.08 68.4251 16.976 68.7611 16.976C68.9531 16.976 69.1531 17.04 69.3611 17.168C69.5691 17.28 69.7051 17.48 69.7691 17.768C70.3291 20.76 71.1531 24.232 72.2411 28.184C72.6891 27.08 73.3451 25.136 74.2091 22.352C74.3211 21.984 74.4891 21.44 74.7131 20.72C74.9531 20 75.1531 19.4 75.3131 18.92C75.3771 18.68 75.5371 18.488 75.7931 18.344C76.0651 18.2 76.3371 18.128 76.6091 18.128C76.9611 18.128 77.2491 18.216 77.4731 18.392C77.6971 18.568 77.8411 18.76 77.9051 18.968C77.9371 19.064 78.2651 20.168 78.8891 22.28C79.5131 24.392 80.2491 26.36 81.0971 28.184C81.4171 27.24 81.8011 25.728 82.2491 23.648L82.6091 22.064C83.0411 20.368 83.3931 19.056 83.6651 18.128ZM99.4683 30.464C99.4843 30.8 99.4443 31.04 99.3483 31.184C99.2523 31.312 99.0603 31.448 98.7723 31.592C98.3403 31.8 97.8283 31.936 97.2363 32C96.6603 32.064 95.9163 32.096 95.0043 32.096H93.3723C91.9483 32.096 90.8923 31.856 90.2043 31.376C89.5163 30.88 89.0843 30.288 88.9083 29.6C88.7323 28.912 88.6283 28.024 88.5963 26.936C88.5803 26.568 88.5723 26.024 88.5723 25.304C88.5723 23.736 88.7083 21.64 88.9803 19.016C89.0603 18.248 89.3403 17.696 89.8203 17.36C90.3003 17.008 90.8443 16.832 91.4523 16.832C91.9483 16.832 92.7563 16.816 93.8763 16.784L95.9883 16.76C96.8523 16.76 97.4763 16.784 97.8603 16.832C98.3403 16.928 98.7003 17.04 98.9403 17.168C99.1803 17.28 99.3083 17.48 99.3243 17.768C99.3243 18.088 99.2203 18.4 99.0123 18.704C98.8043 19.008 98.4843 19.16 98.0523 19.16C97.5563 19.16 96.8443 19.128 95.9163 19.064C94.9883 19 94.2843 18.968 93.8043 18.968C93.3723 18.968 92.9803 18.992 92.6283 19.04C92.1803 19.072 91.8603 19.128 91.6683 19.208C91.4763 19.288 91.3723 19.424 91.3563 19.616C91.1803 21.36 91.1083 22.576 91.1403 23.264C91.5083 23.312 91.8763 23.336 92.2443 23.336C92.6123 23.336 93.1163 23.304 93.7563 23.24C93.9163 23.224 94.1163 23.208 94.3563 23.192C94.5963 23.176 94.8683 23.168 95.1723 23.168C95.3483 23.168 95.6283 23.184 96.0123 23.216L96.7563 23.24C97.4923 23.24 97.8603 23.504 97.8603 24.032C97.8603 24.352 97.7723 24.608 97.5963 24.8C97.4203 24.992 97.1083 25.136 96.6603 25.232C96.0523 25.344 95.0683 25.4 93.7083 25.4H92.2443C91.9403 25.4 91.5643 25.384 91.1163 25.352C91.1003 25.64 91.0923 26.056 91.0923 26.6C91.0923 27.304 91.1003 27.8 91.1163 28.088C91.1643 29.208 91.9403 29.768 93.4443 29.768C93.9563 29.768 94.5003 29.784 95.0763 29.816L95.9643 29.84C96.3803 29.84 96.7243 29.8 96.9963 29.72C97.2683 29.624 97.5323 29.544 97.7883 29.48C98.0603 29.4 98.3083 29.36 98.5323 29.36C98.8363 29.36 99.0683 29.48 99.2283 29.72C99.3883 29.944 99.4683 30.192 99.4683 30.464ZM109.754 25.64C110.314 26.584 110.874 27.424 111.434 28.16C112.01 28.88 112.762 29.768 113.69 30.824C113.802 30.936 113.858 31.064 113.858 31.208C113.858 31.432 113.73 31.624 113.474 31.784C113.234 31.944 112.938 32.024 112.586 32.024C112.09 32.024 111.554 31.816 110.978 31.4C110.466 31.032 110.01 30.544 109.61 29.936C109.21 29.328 108.746 28.536 108.218 27.56C107.802 26.808 107.554 26.368 107.474 26.24C106.85 26.496 105.874 26.656 104.546 26.72C104.546 27.264 104.594 28 104.69 28.928C104.786 29.888 104.834 30.584 104.834 31.016C104.834 31.304 104.69 31.544 104.402 31.736C104.13 31.928 103.818 32.024 103.466 32.024C103.05 32.024 102.73 31.856 102.506 31.52C102.282 31.072 102.138 30.536 102.074 29.912C102.01 29.288 101.978 28.544 101.978 27.68C101.978 26.768 102.034 25.736 102.146 24.584C102.242 23.304 102.29 22.36 102.29 21.752C102.29 21.256 102.242 20.592 102.146 19.76C102.13 19.616 102.106 19.368 102.074 19.016C102.042 18.664 102.026 18.344 102.026 18.056C102.026 17.832 102.106 17.64 102.266 17.48C102.442 17.304 102.626 17.184 102.818 17.12C104.114 16.912 105.378 16.808 106.61 16.808C108.706 16.808 110.442 17.2 111.818 17.984C113.194 18.768 113.882 19.96 113.882 21.56C113.882 22.056 113.77 22.536 113.546 23C113.338 23.448 113.05 23.824 112.682 24.128C111.706 24.88 110.73 25.384 109.754 25.64ZM111.362 21.488C111.362 20.72 110.954 20.096 110.138 19.616C109.322 19.12 108.162 18.872 106.658 18.872C105.986 18.872 105.322 18.952 104.666 19.112L104.69 20.336C104.69 21.04 104.666 21.728 104.618 22.4C104.57 23.072 104.546 23.792 104.546 24.56C104.818 24.496 105.106 24.456 105.41 24.44C105.714 24.408 105.914 24.384 106.01 24.368C106.714 24.304 107.258 24.224 107.642 24.128C108.362 23.904 108.954 23.704 109.418 23.528C109.898 23.336 110.338 23.072 110.738 22.736C111.154 22.384 111.362 21.968 111.362 21.488Z" fill="#605019"/>
<g filter="url(#filter1_d_27_64)">
<rect x="4" width="128" height="48" rx="24" fill="#312F26"/>
</g>
<path d="M33.9376 31.64C33.7296 31.368 33.5536 31.072 33.4096 30.752C33.2656 30.416 33.1136 30.016 32.9536 29.552C32.9216 29.472 32.8256 29.232 32.6656 28.832C32.5216 28.432 32.3536 28.088 32.1616 27.8C31.1536 27.944 30.3296 28.016 29.6896 28.016C29.3376 28.016 28.9456 28.008 28.5136 27.992C28.0976 27.96 27.7856 27.944 27.5776 27.944C26.7776 27.88 26.1376 27.848 25.6576 27.848C25.4656 28.104 25.2976 28.376 25.1536 28.664C25.0256 28.952 24.8576 29.384 24.6496 29.96C24.3616 30.792 24.1136 31.384 23.9056 31.736C23.7616 31.976 23.4816 32.096 23.0656 32.096C22.7136 32.096 22.3856 32.024 22.0816 31.88C21.7936 31.72 21.6496 31.504 21.6496 31.232C21.7776 30.624 21.9776 29.984 22.2496 29.312C22.5376 28.624 22.9456 27.712 23.4736 26.576L24.4336 24.224C24.9616 22.88 25.4416 21.728 25.8736 20.768C26.3216 19.808 26.9056 18.672 27.6256 17.36C27.7216 17.168 27.8816 17.008 28.1056 16.88C28.3296 16.736 28.5776 16.664 28.8496 16.664C29.1536 16.664 29.3696 16.688 29.4976 16.736C29.6416 16.768 29.7536 16.832 29.8336 16.928C29.9136 17.008 30.0336 17.184 30.1936 17.456C30.7376 18.304 31.2016 19.176 31.5856 20.072C31.9856 20.968 32.4896 22.208 33.0976 23.792L33.6016 25.064C34.0496 26.216 34.4336 27.184 34.7536 27.968C35.0896 28.736 35.4576 29.44 35.8576 30.08C36.1136 30.496 36.2416 30.784 36.2416 30.944C36.2416 31.328 36.1216 31.624 35.8816 31.832C35.6576 32.024 35.3616 32.12 34.9936 32.12C34.5296 32.12 34.1776 31.96 33.9376 31.64ZM31.4656 25.832C31.2096 25.288 30.8416 24.344 30.3616 23C29.8656 21.56 29.3696 20.416 28.8736 19.568C28.5696 20.336 28.1216 21.328 27.5296 22.544C27.1296 23.296 26.6736 24.384 26.1616 25.808C27.1856 25.936 28.2896 26 29.4736 26C30.3216 26 30.9856 25.944 31.4656 25.832ZM48.3772 18.512C48.3772 18.048 48.4812 17.648 48.6892 17.312C48.9132 16.96 49.2412 16.784 49.6732 16.784C50.0412 16.784 50.3692 16.856 50.6572 17C50.9452 17.144 51.0892 17.384 51.0892 17.72C51.0892 18.376 51.0572 19.296 50.9932 20.48C50.9292 21.632 50.8972 22.488 50.8972 23.048C50.8972 23.928 50.9292 25.104 50.9932 26.576C51.0572 27.984 51.0892 29.016 51.0892 29.672C51.0892 30.2 51.0812 30.592 51.0652 30.848C51.0652 31.104 50.9212 31.36 50.6332 31.616C50.3612 31.856 49.9372 31.976 49.3612 31.976C49.0572 31.976 48.7932 31.928 48.5692 31.832C48.3612 31.72 48.2172 31.6 48.1372 31.472C47.3852 30.56 46.2892 29.008 44.8492 26.816C43.2332 24.368 41.9132 22.496 40.8892 21.2C41.0172 22.352 41.0812 23.76 41.0812 25.424C41.0812 26.16 41.0652 27.12 41.0332 28.304C41.0172 29.472 40.9852 30.24 40.9372 30.608C40.8732 31.072 40.7292 31.432 40.5052 31.688C40.2972 31.928 39.9612 32.048 39.4972 32.048C39.1452 32.048 38.8812 31.952 38.7052 31.76C38.5452 31.552 38.4492 31.2 38.4172 30.704C38.4012 30.048 38.4412 29.064 38.5372 27.752C38.5532 27.544 38.5772 27.184 38.6092 26.672C38.6412 26.16 38.6572 25.704 38.6572 25.304C38.6572 24.2 38.6012 22.936 38.4892 21.512C38.3932 19.944 38.3452 18.784 38.3452 18.032C38.3452 17.648 38.4812 17.352 38.7532 17.144C39.0412 16.936 39.3692 16.832 39.7372 16.832C40.0572 16.832 40.3932 16.912 40.7452 17.072C42.1212 18.8 43.9852 21.376 46.3372 24.8L48.5932 28.256C48.6092 28 48.6172 27.64 48.6172 27.176C48.6172 26.36 48.6012 25.48 48.5692 24.536C48.5372 23.592 48.5132 22.952 48.4972 22.616C48.4172 21.064 48.3772 19.696 48.3772 18.512ZM65.3165 27.872C65.3165 28.624 65.1565 29.232 64.8365 29.696C64.5165 30.16 63.9645 30.616 63.1805 31.064C62.6525 31.384 62.0445 31.632 61.3565 31.808C60.6685 31.968 59.9725 32.048 59.2685 32.048C58.8365 32.048 58.3325 31.968 57.7565 31.808C57.1965 31.632 56.7405 31.464 56.3885 31.304L55.9805 30.944C55.2605 30.352 54.7565 29.88 54.4685 29.528C54.1965 29.16 54.0605 28.712 54.0605 28.184C54.0605 27.768 54.1565 27.456 54.3485 27.248C54.5405 27.04 54.8525 26.936 55.2845 26.936C55.5085 26.936 55.7165 27.008 55.9085 27.152C56.1005 27.296 56.2685 27.496 56.4125 27.752C56.8125 28.456 57.2845 28.976 57.8285 29.312C58.3885 29.632 59.0445 29.792 59.7965 29.792C60.5005 29.792 61.2125 29.576 61.9325 29.144C62.5245 28.776 62.8205 28.416 62.8205 28.064C62.8205 27.44 62.5405 26.92 61.9805 26.504C61.4365 26.088 60.6525 25.712 59.6285 25.376C59.0045 25.152 58.0685 24.736 56.8205 24.128C55.9725 23.712 55.3405 23.2 54.9245 22.592C54.5085 21.984 54.3005 21.344 54.3005 20.672C54.3005 20.064 54.5085 19.472 54.9245 18.896C55.3565 18.304 55.8765 17.864 56.4845 17.576C56.8045 17.416 57.3165 17.248 58.0205 17.072C58.7245 16.88 59.2525 16.784 59.6045 16.784C60.2605 16.784 60.8285 16.864 61.3085 17.024C61.7885 17.168 62.2605 17.376 62.7245 17.648C63.4285 18.048 63.9485 18.408 64.2845 18.728C64.6205 19.048 64.7885 19.448 64.7885 19.928C64.7885 20.216 64.6765 20.472 64.4525 20.696C64.2445 20.92 63.8765 21.032 63.3485 21.032C63.2205 21.032 63.0925 20.976 62.9645 20.864C62.8365 20.752 62.6765 20.584 62.4845 20.36C62.2285 20.024 61.9805 19.8 61.7405 19.688C61.6765 19.672 61.4125 19.568 60.9485 19.376C60.5005 19.184 59.9405 19.088 59.2685 19.088C58.6285 19.088 58.0605 19.24 57.5645 19.544C57.0685 19.832 56.8205 20.256 56.8205 20.816C56.8205 21.376 57.3245 21.832 58.3325 22.184C59.4045 22.6 60.2925 22.96 60.9965 23.264C61.7165 23.568 62.4125 23.928 63.0845 24.344C63.8525 24.808 64.4125 25.296 64.7645 25.808C65.1325 26.32 65.3165 27.008 65.3165 27.872ZM83.6651 18.128C83.7611 17.792 83.9051 17.52 84.0971 17.312C84.2891 17.088 84.4971 16.976 84.7211 16.976C85.2651 16.976 85.6571 17.08 85.8971 17.288C86.1371 17.496 86.2571 17.856 86.2571 18.368C86.2571 18.512 86.1451 18.92 85.9211 19.592C85.4251 21.112 84.8811 22.992 84.2891 25.232C84.1451 25.744 84.0251 26.192 83.9291 26.576C83.8491 26.96 83.7771 27.28 83.7131 27.536C83.3291 29.184 82.9931 30.424 82.7051 31.256C82.6091 31.496 82.4411 31.688 82.2011 31.832C81.9611 31.96 81.7051 32.024 81.4331 32.024C81.1611 32.024 80.8891 31.968 80.6171 31.856C80.3611 31.728 80.1771 31.584 80.0651 31.424C79.6811 30.672 79.1051 29.312 78.3371 27.344C77.5851 25.376 76.9931 23.704 76.5611 22.328C75.8091 24.264 75.0251 26.536 74.2091 29.144C73.8891 30.184 73.6651 30.888 73.5371 31.256C73.4251 31.496 73.2651 31.688 73.0571 31.832C72.8491 31.96 72.6171 32.024 72.3611 32.024C72.0731 32.024 71.7931 31.968 71.5211 31.856C71.2491 31.728 71.0651 31.584 70.9691 31.424C70.7611 31.072 70.5371 30.528 70.2971 29.792C70.0731 29.056 69.7691 28.024 69.3851 26.696L68.7851 24.656C68.3691 23.328 68.0091 21.968 67.7051 20.576C67.4011 19.184 67.2491 18.352 67.2491 18.08C67.2491 17.744 67.4171 17.48 67.7531 17.288C68.0891 17.08 68.4251 16.976 68.7611 16.976C68.9531 16.976 69.1531 17.04 69.3611 17.168C69.5691 17.28 69.7051 17.48 69.7691 17.768C70.3291 20.76 71.1531 24.232 72.2411 28.184C72.6891 27.08 73.3451 25.136 74.2091 22.352C74.3211 21.984 74.4891 21.44 74.7131 20.72C74.9531 20 75.1531 19.4 75.3131 18.92C75.3771 18.68 75.5371 18.488 75.7931 18.344C76.0651 18.2 76.3371 18.128 76.6091 18.128C76.9611 18.128 77.2491 18.216 77.4731 18.392C77.6971 18.568 77.8411 18.76 77.9051 18.968C77.9371 19.064 78.2651 20.168 78.8891 22.28C79.5131 24.392 80.2491 26.36 81.0971 28.184C81.4171 27.24 81.8011 25.728 82.2491 23.648L82.6091 22.064C83.0411 20.368 83.3931 19.056 83.6651 18.128ZM99.4683 30.464C99.4843 30.8 99.4443 31.04 99.3483 31.184C99.2523 31.312 99.0603 31.448 98.7723 31.592C98.3403 31.8 97.8283 31.936 97.2363 32C96.6603 32.064 95.9163 32.096 95.0043 32.096H93.3723C91.9483 32.096 90.8923 31.856 90.2043 31.376C89.5163 30.88 89.0843 30.288 88.9083 29.6C88.7323 28.912 88.6283 28.024 88.5963 26.936C88.5803 26.568 88.5723 26.024 88.5723 25.304C88.5723 23.736 88.7083 21.64 88.9803 19.016C89.0603 18.248 89.3403 17.696 89.8203 17.36C90.3003 17.008 90.8443 16.832 91.4523 16.832C91.9483 16.832 92.7563 16.816 93.8763 16.784L95.9883 16.76C96.8523 16.76 97.4763 16.784 97.8603 16.832C98.3403 16.928 98.7003 17.04 98.9403 17.168C99.1803 17.28 99.3083 17.48 99.3243 17.768C99.3243 18.088 99.2203 18.4 99.0123 18.704C98.8043 19.008 98.4843 19.16 98.0523 19.16C97.5563 19.16 96.8443 19.128 95.9163 19.064C94.9883 19 94.2843 18.968 93.8043 18.968C93.3723 18.968 92.9803 18.992 92.6283 19.04C92.1803 19.072 91.8603 19.128 91.6683 19.208C91.4763 19.288 91.3723 19.424 91.3563 19.616C91.1803 21.36 91.1083 22.576 91.1403 23.264C91.5083 23.312 91.8763 23.336 92.2443 23.336C92.6123 23.336 93.1163 23.304 93.7563 23.24C93.9163 23.224 94.1163 23.208 94.3563 23.192C94.5963 23.176 94.8683 23.168 95.1723 23.168C95.3483 23.168 95.6283 23.184 96.0123 23.216L96.7563 23.24C97.4923 23.24 97.8603 23.504 97.8603 24.032C97.8603 24.352 97.7723 24.608 97.5963 24.8C97.4203 24.992 97.1083 25.136 96.6603 25.232C96.0523 25.344 95.0683 25.4 93.7083 25.4H92.2443C91.9403 25.4 91.5643 25.384 91.1163 25.352C91.1003 25.64 91.0923 26.056 91.0923 26.6C91.0923 27.304 91.1003 27.8 91.1163 28.088C91.1643 29.208 91.9403 29.768 93.4443 29.768C93.9563 29.768 94.5003 29.784 95.0763 29.816L95.9643 29.84C96.3803 29.84 96.7243 29.8 96.9963 29.72C97.2683 29.624 97.5323 29.544 97.7883 29.48C98.0603 29.4 98.3083 29.36 98.5323 29.36C98.8363 29.36 99.0683 29.48 99.2283 29.72C99.3883 29.944 99.4683 30.192 99.4683 30.464ZM109.754 25.64C110.314 26.584 110.874 27.424 111.434 28.16C112.01 28.88 112.762 29.768 113.69 30.824C113.802 30.936 113.858 31.064 113.858 31.208C113.858 31.432 113.73 31.624 113.474 31.784C113.234 31.944 112.938 32.024 112.586 32.024C112.09 32.024 111.554 31.816 110.978 31.4C110.466 31.032 110.01 30.544 109.61 29.936C109.21 29.328 108.746 28.536 108.218 27.56C107.802 26.808 107.554 26.368 107.474 26.24C106.85 26.496 105.874 26.656 104.546 26.72C104.546 27.264 104.594 28 104.69 28.928C104.786 29.888 104.834 30.584 104.834 31.016C104.834 31.304 104.69 31.544 104.402 31.736C104.13 31.928 103.818 32.024 103.466 32.024C103.05 32.024 102.73 31.856 102.506 31.52C102.282 31.072 102.138 30.536 102.074 29.912C102.01 29.288 101.978 28.544 101.978 27.68C101.978 26.768 102.034 25.736 102.146 24.584C102.242 23.304 102.29 22.36 102.29 21.752C102.29 21.256 102.242 20.592 102.146 19.76C102.13 19.616 102.106 19.368 102.074 19.016C102.042 18.664 102.026 18.344 102.026 18.056C102.026 17.832 102.106 17.64 102.266 17.48C102.442 17.304 102.626 17.184 102.818 17.12C104.114 16.912 105.378 16.808 106.61 16.808C108.706 16.808 110.442 17.2 111.818 17.984C113.194 18.768 113.882 19.96 113.882 21.56C113.882 22.056 113.77 22.536 113.546 23C113.338 23.448 113.05 23.824 112.682 24.128C111.706 24.88 110.73 25.384 109.754 25.64ZM111.362 21.488C111.362 20.72 110.954 20.096 110.138 19.616C109.322 19.12 108.162 18.872 106.658 18.872C105.986 18.872 105.322 18.952 104.666 19.112L104.69 20.336C104.69 21.04 104.666 21.728 104.618 22.4C104.57 23.072 104.546 23.792 104.546 24.56C104.818 24.496 105.106 24.456 105.41 24.44C105.714 24.408 105.914 24.384 106.01 24.368C106.714 24.304 107.258 24.224 107.642 24.128C108.362 23.904 108.954 23.704 109.418 23.528C109.898 23.336 110.338 23.072 110.738 22.736C111.154 22.384 111.362 21.968 111.362 21.488Z" fill="#FFEAAA"/>
<defs>
<filter id="filter0_d_27_64" x="0" y="0" width="136" height="56" filterUnits="userSpaceOnUse" color-interpolation-filters="sRGB">
<feFlood flood-opacity="0" result="BackgroundImageFix"/>
<feColorMatrix in="SourceAlpha" type="matrix" values="0 0 0 0 0 0 0 0 0 0 0 0 0 0 0 0 0 0 127 0" result="hardAlpha"/>
<feOffset dy="4"/>
<feGaussianBlur stdDeviation="2"/>
<feComposite in2="hardAlpha" operator="out"/>
<feColorMatrix type="matrix" values="0 0 0 0 0 0 0 0 0 0 0 0 0 0 0 0 0 0 0.25 0"/>
<feBlend mode="normal" in2="BackgroundImageFix" result="effect1_dropShadow_27_64"/>
<feBlend mode="normal" in="SourceGraphic" in2="effect1_dropShadow_27_64" result="shape"/>
</filter>
<filter id="filter1_d_27_64" x="0" y="0" width="136" height="56" filterUnits="userSpaceOnUse" color-interpolation-filters="sRGB">
<feFlood flood-opacity="0" result="BackgroundImageFix"/>
<feColorMatrix in="SourceAlpha" type="matrix" values="0 0 0 0 0 0 0 0 0 0 0 0 0 0 0 0 0 0 127 0" result="hardAlpha"/>
<feOffset dy="4"/>
<feGaussianBlur stdDeviation="2"/>
<feComposite in2="hardAlpha" operator="out"/>
<feColorMatrix type="matrix" values="0 0 0 0 0 0 0 0 0 0 0 0 0 0 0 0 0 0 0.25 0"/>
<feBlend mode="normal" in2="BackgroundImageFix" result="effect1_dropShadow_27_64"/>
<feBlend mode="normal" in="SourceGraphic" in2="effect1_dropShadow_27_64" result="shape"/>
</filter>
</defs>
</svg>
