<svg width="135" height="125" viewBox="0 0 135 125" fill="none" xmlns="http://www.w3.org/2000/svg">
<path d="M25 72.5C25 46.2665 46.2665 25 72.5 25C98.7335 25 120 46.2665 120 72.5C120 98.7335 98.7335 120 72.5 120C46.2665 120 25 98.7335 25 72.5Z" fill="#E77D42"/>
<g filter="url(#filter0_d_114_40)">
<path d="M32 72C32 49.3563 50.3563 31 73 31C95.6437 31 114 49.3563 114 72C114 94.6437 95.6437 113 73 113C50.3563 113 32 94.6437 32 72Z" fill="#D9D9D9"/>
</g>
<g filter="url(#filter1_d_114_40)">
<path d="M50.1868 74.088C55.7602 70.896 61.3082 67.6787 66.8308 64.436C72.3535 61.244 77.9015 58.052 83.4748 54.86V56.076C78.2562 59.116 73.0375 62.1053 67.8188 65.044C62.6002 68.0333 57.3815 71.048 52.1628 74.088C57.3815 77.128 62.6002 80.1173 67.8188 83.056C73.0375 86.0453 78.2562 89.06 83.4748 92.1V93.316C77.9015 90.124 72.3535 86.9067 66.8308 83.664C61.3082 80.472 55.7602 77.28 50.1868 74.088Z" fill="black"/>
<path d="M50.1868 74.088L49.6899 73.2202L48.1747 74.088L49.6899 74.9558L50.1868 74.088ZM66.8308 64.436L66.3304 63.5702L66.3245 63.5737L66.8308 64.436ZM83.4748 54.86H84.4748V53.1349L82.9779 53.9922L83.4748 54.86ZM83.4748 56.076L83.9782 56.9401L84.4748 56.6508V56.076H83.4748ZM67.8188 65.044L67.3282 64.1726L67.3218 64.1763L67.8188 65.044ZM52.1628 74.088L51.6595 73.2239L50.1762 74.088L51.6595 74.9521L52.1628 74.088ZM67.8188 83.056L68.3159 82.1883L68.3095 82.1847L67.8188 83.056ZM83.4748 92.1H84.4748V91.5252L83.9782 91.2359L83.4748 92.1ZM83.4748 93.316L82.9779 94.1838L84.4748 95.0411V93.316H83.4748ZM66.8308 83.664L67.3372 82.8016L67.3313 82.7982L66.8308 83.664ZM50.6838 74.9558C56.2603 71.762 61.8114 68.5428 67.3372 65.2983L66.3245 63.5737C60.805 66.8145 55.2601 70.03 49.6899 73.2202L50.6838 74.9558ZM67.3313 65.3018C72.8528 62.1105 78.3996 58.9191 83.9718 55.7278L82.9779 53.9922C77.4034 57.1849 71.8542 60.3775 66.3304 63.5702L67.3313 65.3018ZM82.4748 54.86V56.076H84.4748V54.86H82.4748ZM82.9715 55.2119C77.757 58.2495 72.5426 61.2364 67.3282 64.1727L68.3095 65.9153C73.5325 62.9743 78.7554 59.9825 83.9782 56.9401L82.9715 55.2119ZM67.3218 64.1763C62.101 67.1668 56.8802 70.1827 51.6595 73.2239L52.6662 74.9521C57.8828 71.9133 63.0993 68.8998 68.3159 65.9117L67.3218 64.1763ZM51.6595 74.9521C56.8823 77.9945 62.1052 80.9863 67.3282 83.9274L68.3095 82.1847C63.0951 79.2484 57.8807 76.2615 52.6662 73.2239L51.6595 74.9521ZM67.3218 83.9237C72.5383 86.9118 77.7549 89.9253 82.9715 92.9641L83.9782 91.2359C78.7574 88.1947 73.5367 85.1788 68.3159 82.1883L67.3218 83.9237ZM82.4748 92.1V93.316H84.4748V92.1H82.4748ZM83.9718 92.4482C78.4016 89.258 72.8567 86.0425 67.3372 82.8017L66.3245 84.5263C71.8503 87.7708 77.4014 90.99 82.9779 94.1838L83.9718 92.4482ZM67.3313 82.7982C61.8074 79.6056 56.2583 76.4129 50.6838 73.2202L49.6899 74.9558C55.2621 78.1471 60.8089 81.3385 66.3304 84.5298L67.3313 82.7982Z" fill="black"/>
</g>
<defs>
<filter id="filter0_d_114_40" x="28" y="31" width="90" height="94" filterUnits="userSpaceOnUse" color-interpolation-filters="sRGB">
<feFlood flood-opacity="0" result="BackgroundImageFix"/>
<feColorMatrix in="SourceAlpha" type="matrix" values="0 0 0 0 0 0 0 0 0 0 0 0 0 0 0 0 0 0 127 0" result="hardAlpha"/>
<feOffset dy="8"/>
<feGaussianBlur stdDeviation="2"/>
<feComposite in2="hardAlpha" operator="out"/>
<feColorMatrix type="matrix" values="0 0 0 0 0 0 0 0 0 0 0 0 0 0 0 0 0 0 0.25 0"/>
<feBlend mode="normal" in2="BackgroundImageFix" result="effect1_dropShadow_114_40"/>
<feBlend mode="normal" in="SourceGraphic" in2="effect1_dropShadow_114_40" result="shape"/>
</filter>
<filter id="filter1_d_114_40" x="46.1868" y="54.8601" width="41.2881" height="49.4558" filterUnits="userSpaceOnUse" color-interpolation-filters="sRGB">
<feFlood flood-opacity="0" result="BackgroundImageFix"/>
<feColorMatrix in="SourceAlpha" type="matrix" values="0 0 0 0 0 0 0 0 0 0 0 0 0 0 0 0 0 0 127 0" result="hardAlpha"/>
<feOffset dy="7"/>
<feGaussianBlur stdDeviation="2"/>
<feComposite in2="hardAlpha" operator="out"/>
<feColorMatrix type="matrix" values="0 0 0 0 0 0 0 0 0 0 0 0 0 0 0 0 0 0 0.25 0"/>
<feBlend mode="normal" in2="BackgroundImageFix" result="effect1_dropShadow_114_40"/>
<feBlend mode="normal" in="SourceGraphic" in2="effect1_dropShadow_114_40" result="shape"/>
</filter>
</defs>
</svg>
